<svg xmlns="http://www.w3.org/2000/svg" xmlns:xlink="http://www.w3.org/1999/xlink" width="500" zoomAndPan="magnify" viewBox="0 0 375 187.499995" height="250" preserveAspectRatio="xMidYMid meet" version="1.0"><defs><g/></defs><g fill="#2e3192" fill-opacity="1"><g transform="translate(16.157125, 72.965234)"><g><path d="M 23.328125 0.609375 C 19.398438 0.609375 15.9375 -0.1875 12.9375 -1.78125 C 9.945312 -3.382812 7.601562 -5.828125 5.90625 -9.109375 C 4.207031 -12.398438 3.359375 -16.492188 3.359375 -21.390625 C 3.359375 -26.285156 4.207031 -30.378906 5.90625 -33.671875 C 7.601562 -36.960938 9.945312 -39.40625 12.9375 -41 C 15.9375 -42.601562 19.398438 -43.40625 23.328125 -43.40625 C 27.242188 -43.40625 30.691406 -42.609375 33.671875 -41.015625 C 36.660156 -39.421875 39 -36.972656 40.6875 -33.671875 C 42.375 -30.378906 43.21875 -26.285156 43.21875 -21.390625 C 43.21875 -16.492188 42.375 -12.394531 40.6875 -9.09375 C 39 -5.800781 36.660156 -3.359375 33.671875 -1.765625 C 30.691406 -0.179688 27.242188 0.609375 23.328125 0.609375 Z M 23.328125 -6.734375 C 26.953125 -6.734375 29.71875 -7.894531 31.625 -10.21875 C 33.539062 -12.550781 34.5 -16.273438 34.5 -21.390625 C 34.5 -26.503906 33.539062 -30.226562 31.625 -32.5625 C 29.71875 -34.90625 26.953125 -36.078125 23.328125 -36.078125 C 19.679688 -36.078125 16.894531 -34.90625 14.96875 -32.5625 C 13.050781 -30.226562 12.09375 -26.503906 12.09375 -21.390625 C 12.09375 -16.273438 13.050781 -12.550781 14.96875 -10.21875 C 16.894531 -7.894531 19.679688 -6.734375 23.328125 -6.734375 Z M 23.328125 -6.734375 "/></g></g></g><g fill="#2e3192" fill-opacity="1"><g transform="translate(62.75424, 72.965234)"><g><path d="M 20.78125 0.609375 C 17.207031 0.609375 14.117188 -0.203125 11.515625 -1.828125 C 8.910156 -3.453125 6.898438 -5.910156 5.484375 -9.203125 C 4.066406 -12.492188 3.359375 -16.554688 3.359375 -21.390625 C 3.359375 -26.265625 4.207031 -30.347656 5.90625 -33.640625 C 7.601562 -36.929688 9.957031 -39.378906 12.96875 -40.984375 C 15.988281 -42.597656 19.488281 -43.40625 23.46875 -43.40625 C 27.570312 -43.40625 31.066406 -42.644531 33.953125 -41.125 C 36.835938 -39.601562 38.863281 -37.335938 40.03125 -34.328125 L 33.859375 -30.578125 L 33.125 -30.609375 C 32.25 -32.523438 31.015625 -33.921875 29.421875 -34.796875 C 27.835938 -35.671875 25.851562 -36.109375 23.46875 -36.109375 C 19.78125 -36.109375 16.960938 -34.941406 15.015625 -32.609375 C 13.066406 -30.285156 12.09375 -26.546875 12.09375 -21.390625 C 12.09375 -16.222656 13.003906 -12.46875 14.828125 -10.125 C 16.648438 -7.78125 19.347656 -6.609375 22.921875 -6.609375 C 26.003906 -6.609375 28.273438 -7.300781 29.734375 -8.6875 C 31.191406 -10.070312 31.921875 -12.140625 31.921875 -14.890625 L 31.921875 -16.734375 L 21.796875 -16.734375 L 21.796875 -23.625 L 40.328125 -23.625 L 40.328125 0 L 32.25 0 L 32.25 -5.734375 L 31.640625 -5.828125 C 30.753906 -3.773438 29.421875 -2.1875 27.640625 -1.0625 C 25.859375 0.0507812 23.570312 0.609375 20.78125 0.609375 Z M 20.78125 0.609375 "/></g></g></g><g fill="#2e3192" fill-opacity="1"><g transform="translate(107.362276, 72.965234)"><g><path d="M 5.5625 0 L 5.5625 -42.78125 L 22.734375 -42.78125 C 27.171875 -42.78125 30.515625 -41.757812 32.765625 -39.71875 C 35.015625 -37.6875 36.140625 -34.875 36.140625 -31.28125 C 36.140625 -28.6875 35.476562 -26.5625 34.15625 -24.90625 C 32.84375 -23.25 30.878906 -21.976562 28.265625 -21.09375 L 28.265625 -20.484375 C 29.617188 -19.898438 30.707031 -19.03125 31.53125 -17.875 C 32.363281 -16.726562 33.148438 -15.023438 33.890625 -12.765625 L 38.15625 0 L 29.46875 0 L 25.28125 -12.796875 C 24.851562 -14.078125 24.367188 -15.070312 23.828125 -15.78125 C 23.296875 -16.5 22.613281 -17.019531 21.78125 -17.34375 C 20.957031 -17.664062 19.882812 -17.828125 18.5625 -17.828125 L 14.015625 -17.828125 L 14.015625 0 Z M 21.71875 -24.53125 C 25.8125 -24.53125 27.859375 -26.441406 27.859375 -30.265625 C 27.859375 -34.140625 25.8125 -36.078125 21.71875 -36.078125 L 14.015625 -36.078125 L 14.015625 -24.53125 Z M 21.71875 -24.53125 "/></g></g></g><g fill="#2e3192" fill-opacity="1"><g transform="translate(147.348626, 72.965234)"><g><path d="M 14.015625 -18.78125 L 14.015625 -7.078125 L 34.453125 -7.078125 L 34.453125 0 L 5.5625 0 L 5.5625 -42.78125 L 33.984375 -42.78125 L 33.984375 -35.703125 L 14.015625 -35.703125 L 14.015625 -25.703125 L 31.46875 -25.703125 L 31.46875 -18.78125 Z M 14.015625 -18.78125 "/></g></g></g><g fill="#2e3192" fill-opacity="1"><g transform="translate(184.117349, 72.965234)"><g><path d="M 34.296875 -42.78125 L 34.296875 -35.671875 L 21.953125 -35.671875 L 21.953125 0 L 13.515625 0 L 13.515625 -35.671875 L 1.171875 -35.671875 L 1.171875 -42.78125 Z M 34.296875 -42.78125 "/></g></g></g><g fill="#2e3192" fill-opacity="1"><g transform="translate(219.569768, 72.965234)"><g><path d="M 13.3125 0 L 5.5625 0 L 5.5625 -42.78125 L 16.625 -42.78125 L 27.453125 -11.328125 L 28.0625 -11.328125 L 38.84375 -42.78125 L 49.640625 -42.78125 L 49.640625 0 L 41.609375 0 L 41.609375 -28.265625 L 40.890625 -28.390625 L 31 0 L 23.9375 0 L 14.046875 -28.390625 L 13.3125 -28.265625 Z M 13.3125 0 "/></g></g></g><g fill="#2e3192" fill-opacity="1"><g transform="translate(274.766728, 72.965234)"><g><path d="M 14.015625 -18.78125 L 14.015625 -7.078125 L 34.453125 -7.078125 L 34.453125 0 L 5.5625 0 L 5.5625 -42.78125 L 33.984375 -42.78125 L 33.984375 -35.703125 L 14.015625 -35.703125 L 14.015625 -25.703125 L 31.46875 -25.703125 L 31.46875 -18.78125 Z M 14.015625 -18.78125 "/></g></g></g><g fill="#2e3192" fill-opacity="1"><g transform="translate(311.53545, 72.965234)"><g><path d="M 13.75 0 L 5.5625 0 L 5.5625 -42.78125 L 15.25 -42.78125 L 32.421875 -15.21875 L 33.1875 -15.328125 L 33.1875 -42.78125 L 41.328125 -42.78125 L 41.328125 0 L 32.65625 0 L 14.484375 -29.4375 L 13.75 -29.328125 Z M 13.75 0 "/></g></g></g><g fill="#2e3192" fill-opacity="1"><g transform="translate(20.304244, 151.315968)"><g><path d="M 1.71875 0 L 1.71875 -11.359375 L 6.03125 -11.359375 C 6.726562 -11.359375 7.316406 -11.25 7.796875 -11.03125 C 8.285156 -10.8125 8.65625 -10.492188 8.90625 -10.078125 C 9.15625 -9.671875 9.28125 -9.179688 9.28125 -8.609375 C 9.28125 -8.117188 9.144531 -7.671875 8.875 -7.265625 C 8.601562 -6.867188 8.222656 -6.5625 7.734375 -6.34375 L 7.734375 -6.171875 C 8.484375 -5.984375 9.050781 -5.644531 9.4375 -5.15625 C 9.832031 -4.664062 10.03125 -4.046875 10.03125 -3.296875 C 10.03125 -2.234375 9.71875 -1.414062 9.09375 -0.84375 C 8.476562 -0.28125 7.566406 0 6.359375 0 Z M 5.96875 -6.59375 C 6.59375 -6.59375 7.078125 -6.753906 7.421875 -7.078125 C 7.773438 -7.410156 7.953125 -7.863281 7.953125 -8.4375 C 7.953125 -9.050781 7.78125 -9.507812 7.4375 -9.8125 C 7.101562 -10.113281 6.613281 -10.265625 5.96875 -10.265625 L 3.0625 -10.265625 L 3.0625 -6.59375 Z M 6.25 -1.109375 C 7.863281 -1.109375 8.671875 -1.835938 8.671875 -3.296875 C 8.671875 -4.753906 7.863281 -5.484375 6.25 -5.484375 L 3.0625 -5.484375 L 3.0625 -1.109375 Z M 6.25 -1.109375 "/></g></g></g><g fill="#2e3192" fill-opacity="1"><g transform="translate(42.329563, 151.315968)"><g><path d="M 6.234375 0.15625 C 5.253906 0.15625 4.378906 -0.0507812 3.609375 -0.46875 C 2.835938 -0.894531 2.234375 -1.546875 1.796875 -2.421875 C 1.359375 -3.296875 1.140625 -4.382812 1.140625 -5.6875 C 1.140625 -6.988281 1.359375 -8.070312 1.796875 -8.9375 C 2.234375 -9.8125 2.835938 -10.460938 3.609375 -10.890625 C 4.378906 -11.316406 5.253906 -11.53125 6.234375 -11.53125 C 7.222656 -11.53125 8.097656 -11.316406 8.859375 -10.890625 C 9.628906 -10.460938 10.234375 -9.8125 10.671875 -8.9375 C 11.109375 -8.070312 11.328125 -6.988281 11.328125 -5.6875 C 11.328125 -4.382812 11.109375 -3.296875 10.671875 -2.421875 C 10.234375 -1.546875 9.628906 -0.894531 8.859375 -0.46875 C 8.097656 -0.0507812 7.222656 0.15625 6.234375 0.15625 Z M 6.234375 -1.078125 C 7.410156 -1.078125 8.316406 -1.441406 8.953125 -2.171875 C 9.585938 -2.910156 9.90625 -4.082031 9.90625 -5.6875 C 9.90625 -7.28125 9.585938 -8.445312 8.953125 -9.1875 C 8.316406 -9.925781 7.410156 -10.296875 6.234375 -10.296875 C 3.785156 -10.296875 2.5625 -8.757812 2.5625 -5.6875 C 2.5625 -2.613281 3.785156 -1.078125 6.234375 -1.078125 Z M 6.234375 -1.078125 "/></g></g></g><g fill="#2e3192" fill-opacity="1"><g transform="translate(65.88592, 151.315968)"><g><path d="M 6.234375 0.15625 C 5.253906 0.15625 4.378906 -0.0507812 3.609375 -0.46875 C 2.835938 -0.894531 2.234375 -1.546875 1.796875 -2.421875 C 1.359375 -3.296875 1.140625 -4.382812 1.140625 -5.6875 C 1.140625 -6.988281 1.359375 -8.070312 1.796875 -8.9375 C 2.234375 -9.8125 2.835938 -10.460938 3.609375 -10.890625 C 4.378906 -11.316406 5.253906 -11.53125 6.234375 -11.53125 C 7.222656 -11.53125 8.097656 -11.316406 8.859375 -10.890625 C 9.628906 -10.460938 10.234375 -9.8125 10.671875 -8.9375 C 11.109375 -8.070312 11.328125 -6.988281 11.328125 -5.6875 C 11.328125 -4.382812 11.109375 -3.296875 10.671875 -2.421875 C 10.234375 -1.546875 9.628906 -0.894531 8.859375 -0.46875 C 8.097656 -0.0507812 7.222656 0.15625 6.234375 0.15625 Z M 6.234375 -1.078125 C 7.410156 -1.078125 8.316406 -1.441406 8.953125 -2.171875 C 9.585938 -2.910156 9.90625 -4.082031 9.90625 -5.6875 C 9.90625 -7.28125 9.585938 -8.445312 8.953125 -9.1875 C 8.316406 -9.925781 7.410156 -10.296875 6.234375 -10.296875 C 3.785156 -10.296875 2.5625 -8.757812 2.5625 -5.6875 C 2.5625 -2.613281 3.785156 -1.078125 6.234375 -1.078125 Z M 6.234375 -1.078125 "/></g></g></g><g fill="#2e3192" fill-opacity="1"><g transform="translate(89.442277, 151.315968)"><g><path d="M 1.71875 0 L 1.71875 -11.359375 L 3.0625 -11.359375 L 3.0625 -6.390625 L 3.296875 -6.390625 L 7.96875 -11.359375 L 9.421875 -11.359375 L 9.421875 -11.171875 L 4.5 -5.859375 L 9.8125 -0.1875 L 9.8125 0 L 8.28125 0 L 3.296875 -5.234375 L 3.0625 -5.234375 L 3.0625 0 Z M 1.71875 0 "/></g></g></g><g fill="#2e3192" fill-opacity="1"><g transform="translate(110.558285, 151.315968)"><g><path d="M 3.0625 0 L 1.71875 0 L 1.71875 -11.359375 L 3.0625 -11.359375 Z M 3.0625 0 "/></g></g></g><g fill="#2e3192" fill-opacity="1"><g transform="translate(126.428331, 151.315968)"><g><path d="M 3.03125 0 L 1.71875 0 L 1.71875 -11.359375 L 3.359375 -11.359375 L 8.90625 -2.6875 L 9.09375 -2.71875 L 9.09375 -11.359375 L 10.390625 -11.359375 L 10.390625 0 L 9 0 L 3.21875 -9.296875 L 3.03125 -9.265625 Z M 3.03125 0 "/></g></g></g><g fill="#2e3192" fill-opacity="1"><g transform="translate(149.63497, 151.315968)"><g><path d="M 5.984375 0.15625 C 5.023438 0.15625 4.179688 -0.0546875 3.453125 -0.484375 C 2.722656 -0.921875 2.15625 -1.578125 1.75 -2.453125 C 1.34375 -3.328125 1.140625 -4.40625 1.140625 -5.6875 C 1.140625 -6.957031 1.359375 -8.03125 1.796875 -8.90625 C 2.234375 -9.78125 2.835938 -10.4375 3.609375 -10.875 C 4.390625 -11.3125 5.289062 -11.53125 6.3125 -11.53125 C 7.394531 -11.53125 8.285156 -11.332031 8.984375 -10.9375 C 9.679688 -10.550781 10.175781 -9.96875 10.46875 -9.1875 L 9.59375 -8.671875 L 9.40625 -8.671875 C 9.113281 -9.265625 8.710938 -9.6875 8.203125 -9.9375 C 7.703125 -10.195312 7.070312 -10.328125 6.3125 -10.328125 C 3.8125 -10.328125 2.5625 -8.78125 2.5625 -5.6875 C 2.5625 -4.070312 2.875 -2.894531 3.5 -2.15625 C 4.132812 -1.414062 5.015625 -1.046875 6.140625 -1.046875 C 7.179688 -1.046875 7.957031 -1.28125 8.46875 -1.75 C 8.988281 -2.21875 9.25 -2.960938 9.25 -3.984375 L 9.25 -4.984375 L 6.015625 -4.984375 L 6.015625 -6.0625 L 10.546875 -6.0625 L 10.546875 0 L 9.3125 0 L 9.3125 -1.53125 L 9.140625 -1.5625 C 8.835938 -0.976562 8.414062 -0.546875 7.875 -0.265625 C 7.34375 0.015625 6.710938 0.15625 5.984375 0.15625 Z M 5.984375 0.15625 "/></g></g></g><g fill="#2e3192" fill-opacity="1"><g transform="translate(16.157125, 133.071296)"><g><path d="M 20.78125 0.609375 C 17.207031 0.609375 14.117188 -0.203125 11.515625 -1.828125 C 8.910156 -3.453125 6.898438 -5.910156 5.484375 -9.203125 C 4.066406 -12.492188 3.359375 -16.554688 3.359375 -21.390625 C 3.359375 -26.265625 4.207031 -30.347656 5.90625 -33.640625 C 7.601562 -36.929688 9.957031 -39.378906 12.96875 -40.984375 C 15.988281 -42.597656 19.488281 -43.40625 23.46875 -43.40625 C 27.570312 -43.40625 31.066406 -42.644531 33.953125 -41.125 C 36.835938 -39.601562 38.863281 -37.335938 40.03125 -34.328125 L 33.859375 -30.578125 L 33.125 -30.609375 C 32.25 -32.523438 31.015625 -33.921875 29.421875 -34.796875 C 27.835938 -35.671875 25.851562 -36.109375 23.46875 -36.109375 C 19.78125 -36.109375 16.960938 -34.941406 15.015625 -32.609375 C 13.066406 -30.285156 12.09375 -26.546875 12.09375 -21.390625 C 12.09375 -16.222656 13.003906 -12.46875 14.828125 -10.125 C 16.648438 -7.78125 19.347656 -6.609375 22.921875 -6.609375 C 26.003906 -6.609375 28.273438 -7.300781 29.734375 -8.6875 C 31.191406 -10.070312 31.921875 -12.140625 31.921875 -14.890625 L 31.921875 -16.734375 L 21.796875 -16.734375 L 21.796875 -23.625 L 40.328125 -23.625 L 40.328125 0 L 32.25 0 L 32.25 -5.734375 L 31.640625 -5.828125 C 30.753906 -3.773438 29.421875 -2.1875 27.640625 -1.0625 C 25.859375 0.0507812 23.570312 0.609375 20.78125 0.609375 Z M 20.78125 0.609375 "/></g></g></g><g fill="#2e3192" fill-opacity="1"><g transform="translate(60.780848, 133.071296)"><g><path d="M 14.015625 -18.78125 L 14.015625 -7.078125 L 34.453125 -7.078125 L 34.453125 0 L 5.5625 0 L 5.5625 -42.78125 L 33.984375 -42.78125 L 33.984375 -35.703125 L 14.015625 -35.703125 L 14.015625 -25.703125 L 31.46875 -25.703125 L 31.46875 -18.78125 Z M 14.015625 -18.78125 "/></g></g></g><g fill="#2e3192" fill-opacity="1"><g transform="translate(97.562501, 133.071296)"><g><path d="M 34.296875 -42.78125 L 34.296875 -35.671875 L 21.953125 -35.671875 L 21.953125 0 L 13.515625 0 L 13.515625 -35.671875 L 1.171875 -35.671875 L 1.171875 -42.78125 Z M 34.296875 -42.78125 "/></g></g></g><g fill="#2e3192" fill-opacity="1"><g transform="translate(133.027387, 133.071296)"><g><path d="M 14.015625 0 L 5.5625 0 L 5.5625 -42.78125 L 14.015625 -42.78125 Z M 14.015625 0 "/></g></g></g><g fill="#2e3192" fill-opacity="1"><g transform="translate(152.632564, 133.071296)"><g><path d="M 5.5625 0 L 5.5625 -42.78125 L 22.734375 -42.78125 C 27.171875 -42.78125 30.515625 -41.757812 32.765625 -39.71875 C 35.015625 -37.6875 36.140625 -34.875 36.140625 -31.28125 C 36.140625 -28.6875 35.476562 -26.5625 34.15625 -24.90625 C 32.84375 -23.25 30.878906 -21.976562 28.265625 -21.09375 L 28.265625 -20.484375 C 29.617188 -19.898438 30.707031 -19.03125 31.53125 -17.875 C 32.363281 -16.726562 33.148438 -15.023438 33.890625 -12.765625 L 38.15625 0 L 29.46875 0 L 25.28125 -12.796875 C 24.851562 -14.078125 24.367188 -15.070312 23.828125 -15.78125 C 23.296875 -16.5 22.613281 -17.019531 21.78125 -17.34375 C 20.957031 -17.664062 19.882812 -17.828125 18.5625 -17.828125 L 14.015625 -17.828125 L 14.015625 0 Z M 21.71875 -24.53125 C 25.8125 -24.53125 27.859375 -26.441406 27.859375 -30.265625 C 27.859375 -34.140625 25.8125 -36.078125 21.71875 -36.078125 L 14.015625 -36.078125 L 14.015625 -24.53125 Z M 21.71875 -24.53125 "/></g></g></g><g fill="#2e3192" fill-opacity="1"><g transform="translate(199.641088, 151.315968)"><g><path d="M 4.96875 0.15625 C 4.25 0.15625 3.601562 0.0625 3.03125 -0.125 C 2.46875 -0.320312 2 -0.578125 1.625 -0.890625 C 1.25 -1.210938 0.96875 -1.5625 0.78125 -1.9375 L 1.515625 -2.828125 L 1.703125 -2.828125 C 2.410156 -1.640625 3.5 -1.046875 4.96875 -1.046875 C 5.820312 -1.046875 6.457031 -1.222656 6.875 -1.578125 C 7.289062 -1.929688 7.5 -2.429688 7.5 -3.078125 C 7.5 -3.441406 7.429688 -3.753906 7.296875 -4.015625 C 7.160156 -4.273438 6.929688 -4.492188 6.609375 -4.671875 C 6.296875 -4.859375 5.867188 -5.019531 5.328125 -5.15625 L 4 -5.484375 C 3.007812 -5.722656 2.28125 -6.101562 1.8125 -6.625 C 1.34375 -7.144531 1.109375 -7.804688 1.109375 -8.609375 C 1.109375 -9.171875 1.25 -9.671875 1.53125 -10.109375 C 1.820312 -10.554688 2.25 -10.90625 2.8125 -11.15625 C 3.375 -11.40625 4.039062 -11.53125 4.8125 -11.53125 C 5.675781 -11.53125 6.398438 -11.410156 6.984375 -11.171875 C 7.578125 -10.929688 8.046875 -10.566406 8.390625 -10.078125 L 7.75 -9.203125 L 7.546875 -9.203125 C 7.222656 -9.597656 6.835938 -9.890625 6.390625 -10.078125 C 5.941406 -10.265625 5.414062 -10.359375 4.8125 -10.359375 C 4.03125 -10.359375 3.4375 -10.207031 3.03125 -9.90625 C 2.632812 -9.601562 2.4375 -9.179688 2.4375 -8.640625 C 2.4375 -8.128906 2.582031 -7.71875 2.875 -7.40625 C 3.164062 -7.101562 3.664062 -6.867188 4.375 -6.703125 L 5.734375 -6.375 C 6.835938 -6.125 7.632812 -5.726562 8.125 -5.1875 C 8.625 -4.65625 8.875 -3.972656 8.875 -3.140625 C 8.875 -2.492188 8.726562 -1.921875 8.4375 -1.421875 C 8.144531 -0.929688 7.707031 -0.546875 7.125 -0.265625 C 6.539062 0.015625 5.820312 0.15625 4.96875 0.15625 Z M 4.96875 0.15625 "/></g></g></g><g fill="#2e3192" fill-opacity="1"><g transform="translate(220.469547, 151.315968)"><g><path d="M 3.0625 -5.359375 L 3.0625 -1.109375 L 8.84375 -1.109375 L 8.84375 0 L 1.71875 0 L 1.71875 -11.359375 L 8.71875 -11.359375 L 8.71875 -10.265625 L 3.0625 -10.265625 L 3.0625 -6.453125 L 8.046875 -6.453125 L 8.046875 -5.359375 Z M 3.0625 -5.359375 "/></g></g></g><g fill="#2e3192" fill-opacity="1"><g transform="translate(241.158113, 151.315968)"><g><path d="M 1.71875 0 L 1.71875 -11.359375 L 5.84375 -11.359375 C 6.601562 -11.359375 7.242188 -11.234375 7.765625 -10.984375 C 8.285156 -10.734375 8.675781 -10.378906 8.9375 -9.921875 C 9.195312 -9.460938 9.328125 -8.921875 9.328125 -8.296875 C 9.328125 -7.585938 9.148438 -7.003906 8.796875 -6.546875 C 8.441406 -6.085938 7.890625 -5.742188 7.140625 -5.515625 L 7.140625 -5.359375 C 7.515625 -5.210938 7.816406 -4.984375 8.046875 -4.671875 C 8.273438 -4.359375 8.488281 -3.894531 8.6875 -3.28125 L 9.734375 0 L 8.359375 0 L 7.234375 -3.46875 C 7.097656 -3.882812 6.941406 -4.207031 6.765625 -4.4375 C 6.585938 -4.664062 6.363281 -4.832031 6.09375 -4.9375 C 5.820312 -5.039062 5.476562 -5.09375 5.0625 -5.09375 L 3.0625 -5.09375 L 3.0625 0 Z M 5.8125 -6.234375 C 6.519531 -6.234375 7.046875 -6.394531 7.390625 -6.71875 C 7.742188 -7.050781 7.921875 -7.554688 7.921875 -8.234375 C 7.921875 -8.910156 7.742188 -9.410156 7.390625 -9.734375 C 7.046875 -10.066406 6.519531 -10.234375 5.8125 -10.234375 L 3.0625 -10.234375 L 3.0625 -6.234375 Z M 5.8125 -6.234375 "/></g></g></g><g fill="#2e3192" fill-opacity="1"><g transform="translate(262.771517, 151.315968)"><g><path d="M 6.1875 0 L 4.4375 0 L 0.484375 -11.359375 L 1.90625 -11.359375 L 5.25 -1.671875 L 5.4375 -1.671875 L 8.734375 -11.359375 L 10.140625 -11.359375 Z M 6.1875 0 "/></g></g></g><g fill="#2e3192" fill-opacity="1"><g transform="translate(284.478183, 151.315968)"><g><path d="M 3.0625 0 L 1.71875 0 L 1.71875 -11.359375 L 3.0625 -11.359375 Z M 3.0625 0 "/></g></g></g><g fill="#2e3192" fill-opacity="1"><g transform="translate(300.348229, 151.315968)"><g><path d="M 6.28125 0.15625 C 5.28125 0.15625 4.390625 -0.0664062 3.609375 -0.515625 C 2.835938 -0.972656 2.234375 -1.640625 1.796875 -2.515625 C 1.359375 -3.398438 1.140625 -4.457031 1.140625 -5.6875 C 1.140625 -6.914062 1.359375 -7.96875 1.796875 -8.84375 C 2.234375 -9.71875 2.835938 -10.382812 3.609375 -10.84375 C 4.390625 -11.300781 5.28125 -11.53125 6.28125 -11.53125 C 7.34375 -11.53125 8.222656 -11.328125 8.921875 -10.921875 C 9.628906 -10.523438 10.140625 -9.921875 10.453125 -9.109375 L 9.59375 -8.546875 L 9.40625 -8.546875 C 9.09375 -9.191406 8.6875 -9.648438 8.1875 -9.921875 C 7.695312 -10.191406 7.0625 -10.328125 6.28125 -10.328125 C 5.5625 -10.328125 4.925781 -10.164062 4.375 -9.84375 C 3.820312 -9.53125 3.378906 -9.023438 3.046875 -8.328125 C 2.722656 -7.640625 2.5625 -6.757812 2.5625 -5.6875 C 2.5625 -4.601562 2.722656 -3.71875 3.046875 -3.03125 C 3.378906 -2.34375 3.820312 -1.835938 4.375 -1.515625 C 4.925781 -1.203125 5.5625 -1.046875 6.28125 -1.046875 C 7.101562 -1.046875 7.773438 -1.226562 8.296875 -1.59375 C 8.828125 -1.96875 9.21875 -2.566406 9.46875 -3.390625 L 9.65625 -3.390625 L 10.5625 -2.953125 C 10.289062 -1.953125 9.789062 -1.179688 9.0625 -0.640625 C 8.332031 -0.109375 7.40625 0.15625 6.28125 0.15625 Z M 6.28125 0.15625 "/></g></g></g><g fill="#2e3192" fill-opacity="1"><g transform="translate(322.583383, 151.315968)"><g><path d="M 3.0625 -5.359375 L 3.0625 -1.109375 L 8.84375 -1.109375 L 8.84375 0 L 1.71875 0 L 1.71875 -11.359375 L 8.71875 -11.359375 L 8.71875 -10.265625 L 3.0625 -10.265625 L 3.0625 -6.453125 L 8.046875 -6.453125 L 8.046875 -5.359375 Z M 3.0625 -5.359375 "/></g></g></g><g fill="#2e3192" fill-opacity="1"><g transform="translate(343.271954, 151.315968)"><g><path d="M 4.96875 0.15625 C 4.25 0.15625 3.601562 0.0625 3.03125 -0.125 C 2.46875 -0.320312 2 -0.578125 1.625 -0.890625 C 1.25 -1.210938 0.96875 -1.5625 0.78125 -1.9375 L 1.515625 -2.828125 L 1.703125 -2.828125 C 2.410156 -1.640625 3.5 -1.046875 4.96875 -1.046875 C 5.820312 -1.046875 6.457031 -1.222656 6.875 -1.578125 C 7.289062 -1.929688 7.5 -2.429688 7.5 -3.078125 C 7.5 -3.441406 7.429688 -3.753906 7.296875 -4.015625 C 7.160156 -4.273438 6.929688 -4.492188 6.609375 -4.671875 C 6.296875 -4.859375 5.867188 -5.019531 5.328125 -5.15625 L 4 -5.484375 C 3.007812 -5.722656 2.28125 -6.101562 1.8125 -6.625 C 1.34375 -7.144531 1.109375 -7.804688 1.109375 -8.609375 C 1.109375 -9.171875 1.25 -9.671875 1.53125 -10.109375 C 1.820312 -10.554688 2.25 -10.90625 2.8125 -11.15625 C 3.375 -11.40625 4.039062 -11.53125 4.8125 -11.53125 C 5.675781 -11.53125 6.398438 -11.410156 6.984375 -11.171875 C 7.578125 -10.929688 8.046875 -10.566406 8.390625 -10.078125 L 7.75 -9.203125 L 7.546875 -9.203125 C 7.222656 -9.597656 6.835938 -9.890625 6.390625 -10.078125 C 5.941406 -10.265625 5.414062 -10.359375 4.8125 -10.359375 C 4.03125 -10.359375 3.4375 -10.207031 3.03125 -9.90625 C 2.632812 -9.601562 2.4375 -9.179688 2.4375 -8.640625 C 2.4375 -8.128906 2.582031 -7.71875 2.875 -7.40625 C 3.164062 -7.101562 3.664062 -6.867188 4.375 -6.703125 L 5.734375 -6.375 C 6.835938 -6.125 7.632812 -5.726562 8.125 -5.1875 C 8.625 -4.65625 8.875 -3.972656 8.875 -3.140625 C 8.875 -2.492188 8.726562 -1.921875 8.4375 -1.421875 C 8.144531 -0.929688 7.707031 -0.546875 7.125 -0.265625 C 6.539062 0.015625 5.820312 0.15625 4.96875 0.15625 Z M 4.96875 0.15625 "/></g></g></g></svg>